<svg width="45" height="41" viewBox="0 0 45 41" fill="none" xmlns="http://www.w3.org/2000/svg">
<path d="M37.3211 26.5743C35.0484 26.5743 32.8497 26.2404 30.7987 25.6394C30.152 25.4391 29.4314 25.5894 28.9326 26.0401L26.0317 29.3288C20.8027 27.0751 15.9063 22.8181 13.3011 17.9267L16.9041 15.1555C17.403 14.6881 17.5508 14.037 17.3475 13.4527C16.6639 11.5997 16.3128 9.61308 16.3128 7.5597C16.3128 6.65822 15.4814 5.90698 14.4836 5.90698H8.0906C7.09285 5.90698 5.89185 6.30764 5.89185 7.5597C5.89185 23.0685 20.1745 35.9564 37.3211 35.9564C38.633 35.9564 39.1503 34.9047 39.1503 33.9865V28.227C39.1503 27.3255 38.3188 26.5743 37.3211 26.5743Z" fill="white"/>
</svg>
